<svg xmlns="http://www.w3.org/2000/svg" viewBox="0 0 80 80"><defs><style>.cls-1{fill:none;stroke:#162b24;stroke-linejoin:round;stroke-width:5px;}</style></defs><title>drover_xsmall_icons</title><g id="Layer_4" data-name="Layer 4"><path class="cls-1" d="M69.65,52.92h-2c5.89.48,6.33-2.56,6.83-5.59.44-2.69,1.36-6-1.56-9.06-.82-.87.12-4.62-3.67-7.6A25.91,25.91,0,0,0,61.76,27c-22.54-7.21-35.38,4.11-40.4,6.74s-13,4.85-14.77,8.43C6,43.45,5,43.8,5,47.26v4.22a1.45,1.45,0,0,0,1.45,1.44h8.63"/><line class="cls-1" x1="23.97" y1="52.92" x2="58.76" y2="52.92"/><circle class="cls-1" cx="19.52" cy="50.01" r="5.31"/><circle class="cls-1" cx="63.2" cy="50.01" r="5.31"/></g></svg>