<svg xmlns="http://www.w3.org/2000/svg" viewBox="0 0 80 80"><defs><style>.cls-1{fill:none;stroke:#162b24;stroke-linejoin:round;stroke-width:5px;}</style></defs><title>drover_xsmall_icons</title><g id="Layer_4" data-name="Layer 4"><path class="cls-1" d="M55.35,54.19v9.74a3.72,3.72,0,0,1-2.14,3.38A31.26,31.26,0,0,1,46,69.53a38.3,38.3,0,0,1-11.9,0,31.26,31.26,0,0,1-7.26-2.22,3.72,3.72,0,0,1-2.14-3.38V54.19"/><line class="cls-1" x1="55.35" y1="32.27" x2="70" y2="39.86"/><line class="cls-1" x1="24.65" y1="32.27" x2="10" y2="39.86"/><line class="cls-1" x1="55.35" y1="46.6" x2="70" y2="54.19"/><line class="cls-1" x1="24.65" y1="46.6" x2="10" y2="54.19"/><path class="cls-1" d="M24.65,54.19V23.12C24.65,15.88,29.8,10,36.16,10h7.68c6.36,0,11.51,5.87,11.51,13.11V54.19"/><path class="cls-1" d="M40,33.44h8l2-5.36a19.06,19.06,0,0,0-7.32-2.41,20,20,0,0,0-5.36,0A19.06,19.06,0,0,0,30,28.08l2,5.36Z"/><path class="cls-1" d="M40,54.19H32l-2,5.36A19.25,19.25,0,0,0,37.32,62a20.9,20.9,0,0,0,5.36,0A19.25,19.25,0,0,0,50,59.55l-2-5.36Z"/></g></svg>