<svg xmlns="http://www.w3.org/2000/svg" viewBox="0 0 83.33 83.33"><defs><style>.cls-1,.cls-2{fill:none;stroke:#162b24;stroke-width:5.19px;}.cls-1{stroke-linejoin:round;}.cls-2{stroke-miterlimit:10;}</style></defs><title>drover_xsmall_icons</title><g id="Layer_4" data-name="Layer 4"><path class="cls-1" d="M76.67,67.06l-21-40.5c-3.34-6.43-8.92-10.29-14.89-10.29H13.53"/><path class="cls-2" d="M13.87,32.44a.45.45,0,0,0-.68,0C11.81,34,6.67,40.31,6.67,46.25a7.14,7.14,0,0,0,6.86,6.81,7.15,7.15,0,0,0,6.87-6.81C20.4,40.31,15.26,34,13.87,32.44Z"/><path class="cls-1" d="M33.56,16.27V28.09a18.53,18.53,0,0,0,4.93,13l15.1,15.12c4.32,4.33,10.29,4.58,14.82.63l2-1.79"/></g></svg>