<svg xmlns="http://www.w3.org/2000/svg" viewBox="0 0 80 80"><defs><style>.cls-1{fill:none;stroke:#162b24;stroke-linejoin:round;stroke-width:5px;}</style></defs><title>drover_xsmall_icons</title><g id="Layer_4" data-name="Layer 4"><path class="cls-1" d="M56.28,56,54.9,28a5,5,0,0,0-5.11-4.67H30.21A5,5,0,0,0,25.1,28L23.72,56s-4.32,2.39-4,5.11l.35,3A6.61,6.61,0,0,0,26.63,70H53.39a6.59,6.59,0,0,0,6.54-5.83l.36-3C60.6,58.42,56.28,56,56.28,56Z"/><path class="cls-1" d="M35.25,23.32h8.07c3.32,0,6-3,6-6.66S46.64,10,43.32,10H35.25c-3.32,0-6,3-6,6.66S31.93,23.32,35.25,23.32Z"/><line class="cls-1" x1="19.68" y1="22.88" x2="60.32" y2="54.49"/></g></svg>